HIERARCHY
ROOT root
{
	OFFSET 0.000000 0.000000 0.000000
	CHANNELS 6 Xposition Yposition Zposition Zrotation Yrotation Xrotation
	JOINT lhip
	{
		OFFSET 0.058581 -0.082280 -0.017664
		CHANNELS 3 Zrotation Yrotation Xrotation
		JOINT lknee
		{
			OFFSET 0.043451 -0.386469 0.008037
			CHANNELS 3 Zrotation Yrotation Xrotation
			JOINT lankle
			{
				OFFSET -0.014790 -0.426874 -0.037428
				CHANNELS 3 Zrotation Yrotation Xrotation
				JOINT ltoe
				{
					OFFSET 0.041054 -0.060286 0.122042
					CHANNELS 3 Zrotation Yrotation Xrotation
					End Site
					{
						OFFSET 0.000000 0.000000 0.000000
					}
				}
			}
		}
	}
	JOINT rhip
	{
		OFFSET -0.060310 -0.090513 -0.013543
		CHANNELS 3 Zrotation Yrotation Xrotation
		JOINT rknee
		{
			OFFSET -0.043257 -0.383688 -0.004843
			CHANNELS 3 Zrotation Yrotation Xrotation
			JOINT rankle
			{
				OFFSET 0.019056 -0.420046 -0.034562
				CHANNELS 3 Zrotation Yrotation Xrotation
				JOINT rtoe
				{
					OFFSET -0.034840 -0.062106 0.130323
					CHANNELS 3 Zrotation Yrotation Xrotation
					End Site
					{
						OFFSET 0.000000 0.000000 0.000000
					}
				}
			}
		}
	}
	JOINT lowerback
	{
		OFFSET 0.004439 0.124404 -0.038385
		CHANNELS 3 Zrotation Yrotation Xrotation
		JOINT upperback
		{
			OFFSET 0.004488 0.137956 0.026820
			CHANNELS 3 Zrotation Yrotation Xrotation
			JOINT chest
			{
				OFFSET -0.002265 0.056032 0.002855
				CHANNELS 3 Zrotation Yrotation Xrotation
				JOINT lowerneck
				{
					OFFSET -0.013390 0.211636 -0.033468
					CHANNELS 3 Zrotation Yrotation Xrotation
					JOINT upperneck
					{
						OFFSET 0.010113 0.088937 0.050410
						CHANNELS 3 Zrotation Yrotation Xrotation
						End Site
						{
							OFFSET 0.000000 0.000000 0.000000
						}
					}
				}
				JOINT lclavicle
				{
					OFFSET 0.071702 0.114000 -0.018898
					CHANNELS 3 Zrotation Yrotation Xrotation
					JOINT lshoulder
					{
						OFFSET 0.122921 0.045205 -0.019046
						CHANNELS 3 Zrotation Yrotation Xrotation
						JOINT lelbow
						{
							OFFSET 0.255332 -0.015649 -0.022946
							CHANNELS 3 Zrotation Yrotation Xrotation
							JOINT lwrist
							{
								OFFSET 0.265709 0.012698 -0.007375
								CHANNELS 3 Zrotation Yrotation Xrotation
								End Site
								{
									OFFSET 0.000000 0.000000 0.000000
								}
							}
						}
					}
				}
				JOINT rclavicle
				{
					OFFSET -0.082954 0.112472 -0.023707
					CHANNELS 3 Zrotation Yrotation Xrotation
					JOINT rshoulder
					{
						OFFSET -0.113228 0.046853 -0.008472
						CHANNELS 3 Zrotation Yrotation Xrotation
						JOINT relbow
						{
							OFFSET -0.260127 -0.014369 -0.031269
							CHANNELS 3 Zrotation Yrotation Xrotation
							JOINT rwrist
							{
								OFFSET -0.269108 0.006794 -0.006027
								CHANNELS 3 Zrotation Yrotation Xrotation
								End Site
								{
									OFFSET 0.000000 0.000000 0.000000
								}
							}
						}
					}
				}
			}
		}
	}
}
MOTION
Frames: 17
Frame Time: 0.033333
0.044527 0.274547 0.981368 91.558775 1.860694 80.260008 5.549126 0.664533 -20.616969 -4.483261 3.750880 15.840252 -5.661995 6.916322 -0.251621 0.000000 -0.000000 0.000000 -2.689511 -2.486738 -24.751970 3.005804 -9.189104 19.425149 11.799845 -1.526306 15.810431 0.000000 -0.000000 0.000000 -0.738003 1.562016 24.911326 2.853772 -3.514810 1.597085 2.327639 -1.467290 0.825451 -1.541352 0.382944 9.682252 4.001830 -2.461534 9.741995 -25.018644 -5.617562 5.159226 -59.605102 -13.157190 9.330187 7.933372 -10.087540 -8.389929 2.588032 -7.295945 -15.552502 24.514144 6.601833 5.857599 56.727790 11.131883 12.257786 -14.501368 18.396676 -7.298658 0.935997 4.288478 -8.746977 
0.093668 0.276426 0.925268 90.922918 1.828285 76.388829 5.973486 -0.783246 -27.189390 -5.364326 2.035530 37.111972 -0.711276 8.799328 -2.351964 0.000000 -0.000000 0.000000 -1.836768 -0.170602 -28.852658 2.427414 -6.258475 37.965911 2.907260 -3.787583 2.522633 0.000000 -0.000000 0.000000 -1.277653 1.405494 27.742943 3.128632 -2.291753 -1.015832 1.711210 -1.752291 3.562957 0.584345 1.163035 5.324280 2.080845 -4.085426 14.755633 -25.285433 -4.901553 3.895140 -58.672699 -13.938536 9.272671 7.467990 -9.929101 -7.107343 4.400323 -5.526200 -18.595627 26.142834 6.741148 4.067009 55.617480 11.922960 13.045465 -14.215899 16.232844 -6.654315 0.873472 4.157008 -8.784085 
0.130873 0.280365 0.885359 89.717906 1.143451 71.955270 6.966385 -3.413532 -28.073003 -6.360224 3.866968 47.886137 1.590751 11.302919 -4.638404 0.000000 -0.000000 0.000000 -3.051857 3.247011 -32.101776 2.083955 -6.393011 51.902747 2.553763 -5.171547 -2.185781 0.000000 -0.000000 0.000000 -1.831611 1.831404 32.998986 3.301661 -1.236522 -0.621946 1.565637 -1.420879 2.710631 0.435336 1.333434 3.845891 1.804578 -3.837479 14.040817 -26.256554 -7.642452 4.240382 -57.039265 -14.459693 9.231028 7.936582 -11.823853 -10.129490 6.881393 -5.477827 -20.359106 26.650357 9.870999 4.402640 54.524973 12.811309 13.275475 -15.384197 15.982236 -8.672769 -0.573757 4.111074 -7.656577 
0.165880 0.283124 0.862432 89.106044 1.318571 69.463153 5.851859 -0.579943 -27.250003 -6.277046 1.835212 55.477166 3.985689 11.956147 -10.498698 0.000000 -0.000000 0.000000 -1.879820 1.858709 -31.342931 2.580247 -4.664235 57.743471 -0.094269 -5.756475 -8.149754 0.000000 -0.000000 0.000000 -1.295252 1.710168 34.214092 3.255537 -0.940498 -0.368505 1.560847 -1.019167 2.597207 0.064352 1.121886 6.352778 1.724204 -2.591428 14.682222 -26.345017 -10.607208 5.278680 -56.508917 -14.319717 8.794220 7.253990 -13.545492 -8.392805 9.017386 -5.124853 -20.610559 25.836590 12.790509 5.317249 53.698038 12.942048 12.137440 -14.742228 17.643078 -7.380885 -1.001769 4.757561 -7.064632 
0.189247 0.284871 0.857572 89.734528 1.653812 69.642549 6.227224 -0.842867 -27.423557 -6.554961 2.403088 58.942486 3.952524 12.165610 -13.833950 0.000000 -0.000000 0.000000 -2.461959 1.882293 -30.929215 2.491079 -5.978896 60.481878 0.195323 -5.720839 -11.522248 0.000000 -0.000000 0.000000 -1.344426 1.400614 34.022318 3.693307 -1.247391 -1.397527 1.534814 -1.061582 2.955864 1.035058 1.542314 7.872459 1.393372 -2.978873 16.673054 -26.477473 -10.398812 4.850817 -56.486407 -15.153907 9.097691 6.778178 -14.672816 -6.378383 7.524218 -5.559938 -18.456053 26.377769 12.432914 4.397075 52.623623 14.080951 12.193499 -14.667551 19.844164 -5.458446 0.216285 5.096224 -6.037017 
0.204567 0.284410 0.865659 89.890949 1.608026 70.788950 6.632190 -1.355592 -26.609674 -6.866292 3.109229 57.513079 3.709135 12.308966 -14.242194 0.000000 -0.000000 0.000000 -2.500621 2.146121 -30.263619 2.533662 -6.061079 59.617495 0.206077 -6.104173 -12.634890 0.000000 -0.000000 0.000000 -1.692273 1.623051 33.217015 4.034240 -1.521692 -1.134645 1.558028 -1.136389 2.595525 1.491188 1.430026 8.116707 1.415273 -3.421443 16.609783 -26.366899 -10.425808 4.766164 -56.869966 -15.689749 9.492829 6.995091 -16.355686 -7.968179 8.211444 -5.228868 -20.786139 26.293553 12.389129 3.969846 53.330201 15.135492 12.652635 -16.962637 22.202453 -7.900715 -1.093300 4.907114 -7.448175 
0.218803 0.283402 0.884030 90.041098 1.295636 71.795760 5.618670 -1.439572 -24.147712 -6.112420 2.267244 53.786787 3.537923 12.313285 -13.890560 0.000000 -0.000000 0.000000 -1.742142 2.480402 -28.093025 2.137614 -4.625738 56.464439 0.220233 -6.452979 -12.648558 0.000000 -0.000000 0.000000 -1.975363 1.797049 32.117498 3.892450 -1.709204 -0.833690 1.561052 -1.117526 2.372212 1.415909 0.863087 8.762783 1.313818 -3.760058 16.447969 -26.233927 -11.011135 5.035444 -56.997514 -15.695158 9.913541 7.053914 -16.254053 -7.905172 8.352854 -5.984732 -21.590527 26.024027 12.969422 3.875911 53.859668 15.414591 13.210847 -17.990364 23.588707 -7.909820 -1.435264 5.371063 -7.235246 
0.229838 0.282043 0.907679 90.588446 1.252117 73.246084 4.882067 -1.737291 -21.577880 -5.536046 1.238366 48.325269 2.970368 12.164984 -12.368327 0.000000 -0.000000 0.000000 -1.418516 2.825220 -25.458196 1.982416 -4.139480 51.220591 0.573313 -5.987342 -11.335612 0.000000 -0.000000 0.000000 -1.827125 1.695788 30.707055 3.616601 -1.869149 -0.796082 1.470561 -0.972779 2.226583 1.335953 0.512365 9.533778 1.125867 -4.271984 16.716383 -25.967079 -10.703555 4.836208 -57.584203 -15.435765 10.279815 7.172739 -15.589601 -5.689259 7.388845 -6.438913 -17.774540 25.634941 12.970556 3.580051 54.254506 15.597621 13.585242 -17.968262 24.625601 -6.316691 -1.111703 5.691788 -6.165909 
0.239840 0.279907 0.931415 91.064060 1.306405 75.311264 4.900776 -2.015638 -19.473750 -5.243103 0.982529 42.165382 2.088335 11.502157 -10.512588 0.000000 -0.000000 0.000000 -1.307641 2.481167 -23.316707 2.074102 -4.048877 45.296380 0.991582 -5.245836 -9.620410 0.000000 -0.000000 0.000000 -1.612313 1.826026 28.179610 3.495594 -1.872661 -0.316841 1.395055 -0.851422 1.955646 1.173591 0.122119 10.660825 1.127949 -4.598840 16.551111 -25.742843 -9.626782 4.779983 -58.430224 -15.168381 10.666881 7.333029 -15.573889 -6.076283 6.999499 -6.498775 -18.056765 25.274164 12.290276 3.568872 54.891338 16.010904 13.897731 -18.527098 25.339722 -6.860411 -1.314484 5.604311 -6.748360 
0.249580 0.277563 0.952863 91.154235 1.305084 77.228831 4.930036 -2.012940 -17.372498 -4.888774 0.954896 36.215730 1.260117 10.979880 -8.703977 0.000000 -0.000000 0.000000 -1.275501 1.926614 -21.366600 2.212023 -4.131811 39.715126 1.550636 -4.460026 -7.950178 0.000000 -0.000000 0.000000 -1.385835 2.144159 25.740795 3.331489 -1.660136 -0.020404 1.313757 -0.630957 1.616240 1.008406 -0.256776 11.853246 1.307677 -4.780242 16.309537 -25.484910 -8.462642 4.895453 -59.178083 -14.689276 11.113149 7.376930 -15.334562 -6.903198 6.862406 -7.106603 -20.330700 25.093410 11.386444 3.690063 55.430652 16.384799 14.016658 -19.353267 25.858922 -7.938297 -1.698796 5.633894 -7.886059 
0.258714 0.275043 0.968887 91.173498 1.324710 78.849611 4.952437 -1.573099 -15.770153 -4.441848 1.078196 31.486296 0.675186 10.227692 -7.195642 0.000000 -0.000000 0.000000 -1.059391 1.335097 -19.773617 2.269790 -4.067331 35.151197 1.886919 -3.659423 -6.719253 0.000000 -0.000000 0.000000 -1.196097 2.524068 23.703074 3.169182 -1.432793 0.071014 1.303682 -0.429161 1.390163 1.051691 -0.444105 12.448626 1.371582 -5.028044 16.152643 -25.153900 -7.430576 4.877714 -59.701649 -13.715967 11.192145 7.360276 -14.700202 -5.658360 6.299794 -7.152846 -18.766893 24.933712 10.667748 3.667419 55.730905 16.568026 13.834869 -19.968654 26.662524 -8.270818 -1.908535 5.668702 -8.285164 
0.267949 0.273147 0.978306 91.507908 1.432934 79.996308 5.080892 -1.165803 -14.533297 -4.350134 0.751682 28.140580 0.326047 9.651774 -6.304439 0.000000 -0.000000 0.000000 -0.902548 0.912265 -18.408448 2.378198 -4.195372 31.748010 1.980139 -3.334512 -5.867077 0.000000 -0.000000 0.000000 -0.974954 2.675446 22.137722 3.107221 -1.293112 0.247743 1.293935 -0.308342 1.268494 1.175439 -0.565612 12.373743 1.275737 -5.267394 16.089217 -24.999449 -6.515393 4.909209 -59.688465 -12.645671 10.885934 7.087131 -14.210189 -4.948275 5.782976 -6.842848 -17.461291 24.846853 10.275406 3.582601 55.609053 16.733430 13.705581 -20.350700 27.534802 -8.516531 -2.309197 5.741388 -8.233972 
0.277317 0.272071 0.983372 92.143436 1.627103 80.540486 5.166815 -1.014869 -13.436419 -4.418281 0.027112 26.178952 0.159218 9.497544 -6.137840 0.000000 -0.000000 0.000000 -0.921207 0.563651 -17.030527 2.741490 -4.453617 29.446019 1.977237 -3.434496 -5.376835 0.000000 -0.000000 0.000000 -0.577915 2.577394 21.142117 3.119486 -1.315913 0.546871 1.224520 -0.282139 1.183455 1.263154 -0.688399 11.800399 1.033141 -5.435736 16.374911 -25.157044 -5.978465 5.128872 -59.208469 -11.725466 10.465782 6.695680 -13.456376 -5.331690 5.573823 -6.926214 -17.976701 25.001234 10.337174 3.545581 54.990453 17.074294 13.632818 -20.490267 27.898533 -8.852176 -2.953057 6.040927 -8.028725 
0.286637 0.271590 0.986090 92.931074 1.830435 80.643724 5.277307 -0.805229 -12.477818 -4.574399 -0.632410 25.246693 -0.031428 9.216440 -6.351329 0.000000 -0.000000 0.000000 -0.961078 0.036349 -15.554652 3.115863 -4.546469 27.807357 2.080248 -3.579001 -5.113191 0.000000 -0.000000 0.000000 -0.106736 2.435021 20.599441 3.158666 -1.515872 0.835781 1.181821 -0.394351 1.075677 1.365658 -0.813996 11.241964 0.745824 -5.595563 16.771640 -25.470205 -5.873317 5.523286 -58.737757 -10.928123 9.903249 6.605145 -12.206112 -4.993331 5.059633 -6.923207 -16.835818 25.174128 10.718758 3.556622 54.328144 17.592028 13.247386 -20.269768 27.568431 -8.794158 -3.131001 6.233172 -7.658079 
0.295612 0.271373 0.987934 93.667529 1.947483 80.660913 5.457703 -0.503798 -11.629797 -4.901914 -1.115319 24.642059 -0.213924 8.798381 -6.644242 0.000000 -0.000000 0.000000 -1.002212 -0.406048 -14.235927 3.329478 -4.646344 26.602891 2.030786 -3.700880 -5.154902 0.000000 -0.000000 0.000000 0.196256 2.326847 20.088580 3.236930 -1.711549 1.059940 1.142158 -0.525231 0.932136 1.542078 -0.997049 11.044037 0.508005 -5.833033 17.101758 -25.647682 -5.757456 5.872293 -58.506211 -10.257870 9.458008 6.576632 -10.999788 -4.217934 4.486348 -6.756300 -15.341820 25.312311 10.991179 3.526072 54.034806 18.096435 12.852562 -19.875641 26.757100 -8.471434 -3.133714 6.195611 -7.312488 
0.304137 0.271535 0.990016 94.205046 1.965558 80.760604 5.516632 -0.224291 -10.710346 -5.169471 -1.625777 23.782476 -0.341093 8.618336 -6.909136 0.000000 -0.000000 0.000000 -1.065562 -0.624918 -13.063265 3.443154 -4.720042 25.417054 1.961790 -3.904085 -5.216713 0.000000 -0.000000 0.000000 0.378768 2.178927 19.472598 3.248552 -1.806045 1.163750 1.045556 -0.567033 0.824877 1.790207 -1.250518 11.061227 0.341687 -6.078156 17.400874 -25.771929 -5.405515 6.080769 -58.387290 -9.727147 9.187908 6.476966 -10.322702 -3.662612 3.887423 -6.438162 -14.516427 25.430211 11.052001 3.475221 54.209685 18.502009 12.693249 -19.504574 25.673290 -8.363180 -3.074970 5.996797 -7.128195 
0.312211 0.272311 0.992898 94.581410 1.923647 80.940869 5.403592 -0.054843 -9.702129 -5.173285 -1.934001 22.599208 -0.499103 8.481373 -7.002121 0.000000 -0.000000 0.000000 -1.114835 -0.749839 -11.919134 3.425226 -4.680951 24.047448 1.982991 -4.037784 -5.151697 0.000000 -0.000000 0.000000 0.560840 2.042867 18.794205 3.195928 -1.859970 1.178873 0.925309 -0.566258 0.728356 1.971981 -1.548002 11.240509 0.285305 -6.297184 17.453257 -25.811808 -4.916357 6.201876 -58.540906 -9.254884 9.110247 6.441966 -10.222643 -3.000107 3.165340 -6.153549 -13.835845 25.430165 10.935715 3.426316 54.770527 18.641782 12.703808 -19.184647 24.660357 -8.303408 -2.795831 5.708039 -7.137122 
